<?xml version="1.0" standalone="no"?>
<!DOCTYPE svg PUBLIC "-//W3C//DTD SVG 20010904//EN"
 "http://www.w3.org/TR/2001/REC-SVG-20010904/DTD/svg10.dtd">
<svg version="1.0" xmlns="http://www.w3.org/2000/svg"
 width="512.000000pt" height="512.000000pt" viewBox="0 0 512.000000 512.000000"
 preserveAspectRatio="xMidYMid meet">

<g transform="translate(0.000000,512.000000) scale(0.100000,-0.100000)"
fill="#000000" stroke="none">
<path d="M2315 5109 c-800 -83 -1501 -518 -1927 -1196 -604 -961 -490 -2237
274 -3068 425 -462 951 -737 1583 -827 119 -17 512 -16 635 1 622 86 1148 360
1572 820 349 378 572 861 650 1406 17 118 17 512 0 630 -59 416 -191 769 -410
1099 -92 140 -185 254 -315 385 -399 404 -893 653 -1462 737 -123 18 -478 26
-600 13z m-225 -1239 c44 -89 53 -100 73 -95 147 32 650 32 794 0 20 -5 28 6
73 95 l51 101 37 -6 c160 -26 453 -114 635 -190 86 -36 89 -39 136 -109 159
-235 315 -569 397 -851 41 -141 88 -367 106 -515 14 -113 18 -591 5 -650 -6
-32 -20 -44 -130 -116 -223 -148 -425 -249 -669 -338 -70 -25 -132 -46 -136
-46 -16 0 -202 297 -202 322 0 3 21 13 48 23 69 26 239 113 248 126 7 11 -42
58 -61 59 -6 0 -47 -15 -91 -34 -267 -112 -539 -167 -838 -167 -325 0 -558 49
-912 192 -28 11 -35 10 -63 -10 -17 -12 -31 -28 -31 -35 0 -7 68 -45 150 -85
l151 -73 -37 -66 c-51 -92 -156 -252 -166 -252 -19 0 -263 93 -366 140 -236
106 -557 304 -570 350 -15 54 -7 561 11 693 32 239 88 465 173 697 46 126 217
470 296 595 62 98 65 101 138 137 101 50 350 132 523 173 78 19 150 34 159 34
13 1 33 -28 68 -99z"/>
<path d="M1832 2769 c-230 -91 -289 -442 -106 -625 62 -63 115 -86 205 -92 67
-4 83 -1 136 23 271 121 282 548 19 682 -71 36 -180 42 -254 12z"/>
<path d="M3061 2769 c-144 -57 -241 -245 -212 -410 15 -85 52 -160 104 -213
65 -65 117 -88 208 -94 67 -4 83 -1 138 23 104 47 178 148 202 278 30 161 -46
328 -182 402 -73 39 -179 45 -258 14z"/>
</g>
</svg>
