<?xml version="1.0" standalone="no"?>
<!DOCTYPE svg PUBLIC "-//W3C//DTD SVG 20010904//EN"
 "http://www.w3.org/TR/2001/REC-SVG-20010904/DTD/svg10.dtd">
<svg version="1.0" xmlns="http://www.w3.org/2000/svg"
 width="512.000000pt" height="512.000000pt" viewBox="0 0 512.000000 512.000000"
 preserveAspectRatio="xMidYMid meet">

<g transform="translate(0.000000,512.000000) scale(0.100000,-0.100000)"
fill="#000000" stroke="none">
<path d="M2315 5109 c-800 -83 -1501 -518 -1927 -1196 -487 -774 -516 -1777
-75 -2578 200 -364 487 -676 841 -913 238 -159 600 -311 876 -366 214 -43 295
-51 530 -51 236 0 333 10 532 51 880 184 1615 842 1898 1702 92 278 125 491
125 802 0 301 -32 513 -116 775 -124 390 -330 728 -622 1024 -399 404 -893
653 -1462 737 -123 18 -478 26 -600 13z m1060 -2209 l-690 -690 -125 0 -125 0
-690 690 -690 690 1505 0 1505 0 -690 -690z m-1963 -852 l-472 -473 0 945 0
945 472 -473 473 -472 -473 -472z m2768 470 l0 -943 -472 472 -473 473 470
470 c258 258 471 470 472 470 2 0 3 -424 3 -942z m-1992 -300 l172 -173 200 0
200 0 172 173 c95 94 178 172 183 172 6 0 204 -193 440 -430 l430 -430 -1425
0 -1425 0 430 430 c236 237 434 430 440 430 5 0 88 -78 183 -172z"/>
</g>
</svg>
